<?xml version="1.0" encoding="utf-8"?>
<!-- Generator: Adobe Illustrator 14.0.0, SVG Export Plug-In . SVG Version: 6.00 Build 43363)  -->
<!DOCTYPE svg PUBLIC "-//W3C//DTD SVG 1.1//EN" "http://www.w3.org/Graphics/SVG/1.1/DTD/svg11.dtd">
<svg version="1.1" id="Layer_1" xmlns="http://www.w3.org/2000/svg" xmlns:xlink="http://www.w3.org/1999/xlink" x="0px" y="0px"
	 width="398.389px" height="398.389px" viewBox="0 0 398.389 398.389" enable-background="new 0 0 398.389 398.389"
	 xml:space="preserve">
<path fill="#0052D6" d="M0,199.198C0,89.18,89.18,0,199.198,0c110.011,0,199.19,89.18,199.19,199.198
	c0,110.011-89.18,199.19-199.191,199.19C89.18,398.389,0,309.209,0,199.198"/>
<path fill="#FE8F03" d="M204.522,276.179l6.897,9.104c13.442,17.743,18.478,40.137,3.996,57.125
	c-24.544,28.479-63.019,25.779-96.05,7.991C62.623,319.838,29.142,247.776,29.5,200.128c0.358-44.735,14.289-85.68,50.949-121.875
	c35.829-35.668,76.035-49.112,120.061-49.112c47.296,0,97.142,21.815,126.794,56.904c30.528,36.165,44.209,70.797,43.477,113.351
	c-0.747,44.384-12.514,74.664-37.934,107.548c-29.402,38.04-83.576,64.94-135.883,63.477l-4.3-0.267l5.657-3.013
	c10.088-5.45,20.374-9.089,22.936-14.381c7.793-1.471,12.916-2.096,19.275-3.721c30.042-7.693,61.464-27.106,85.68-59.854
	c21.654-29.479,30.387-52.933,28.562-89.418c-2.547-48.089-14.838-79.778-49.407-113.146
	c-31.735-30.659-61.015-41.761-104.956-41.479C154.562,45.32,124.208,57.23,91.726,89.529
	c-33.214,32.741-46.847,63.583-46.222,110.24c0.564,49.395,22.41,100.291,72.398,130.628c32.527,19.702,62.317,18.896,70.956,14.725
	c16.569-7.99,33.306-24.02,18.941-53.479l-6.2-12.186L204.522,276.179"/>
<path fill="#FE8F03" d="M196.865,94.791c-12.817-20.38-41.975-36.042-59.854-19.474c-26.718,24.75-10.713,61.525,28.753,91.147
	l5.65-5.994c-19.382-18.635-32.405-47.472-18.017-66.587c9.417-12.527,23.278-14.197,39.458,5.292L196.865,94.791"/>
<path fill="#FE8F03" d="M202.508,94.989c12.816-20.389,41.976-36.057,59.87-19.488c26.717,24.75,10.712,61.494-28.77,91.154
	l-5.649-6.001c19.383-18.628,32.405-47.486,18.017-66.587c-9.416-12.537-23.262-14.19-39.457,5.268L202.508,94.989"/>
<path fill="#FE8F03" d="M99.07,221.556c-17.682,16.369-27.816,48.006-8.136,62.416c29.249,21.754,62.417-0.764,84.308-45.018
	l-6.954-4.438c-14.754,22.471-40.694,40.557-62.127,29.935c-14.121-6.839-18.246-20.267-2.097-39.757L99.07,221.556"/>
<path fill="#FE8F03" d="M98.208,215.996c-22.41-8.868-43.271-34.633-30.171-55.266c19.397-30.819,58.482-21.844,94.868,11.499
	l-4.842,6.618c-21.891-15.601-52.626-23.05-68.768-5.437c-10.652,11.589-9.638,25.504,12.459,37.842L98.208,215.996"/>
<path fill="#FE8F03" d="M299.319,218.718c22.77-7.808,44.85-32.642,32.72-53.801c-17.942-31.697-57.394-24.56-95.317,7.029
	l4.545,6.871c22.592-14.571,53.641-20.61,68.942-2.22c10.118,11.995,8.435,25.925-14.213,37.194L299.319,218.718"/>
<path fill="#FE8F03" d="M297.841,224.146c16.881,17.194,25.528,49.158,5.169,62.715c-30.217,20.352-62.294-3.668-82.081-48.905
	l7.139-4.108c13.693,23.125,38.771,42.407,60.654,32.824c14.457-6.275,19.161-19.413,3.949-39.635L297.841,224.146"/>
<polyline fill="#FE8F03" points="140.32,187.144 140.213,187.144 136.042,200.128 122.196,200.128 122.196,200.243 133.488,208.546 
	129.111,221.791 129.203,221.867 140.243,213.653 151.314,221.867 151.429,221.791 147.068,208.546 158.299,200.243 
	158.299,200.128 144.369,200.128 140.32,187.144 "/>
<polyline fill="#FE8F03" points="258.832,187.22 258.733,187.22 254.584,200.228 240.716,200.228 240.716,200.319 252.022,208.63 
	247.616,221.867 247.731,221.966 258.772,213.746 269.858,221.966 269.95,221.867 265.595,208.63 276.789,200.319 276.789,200.228 
	262.888,200.228 258.832,187.22 "/>
<path fill="#FE8F03" d="M204.894,295.47c-23.316-46.131,12.178-47.854-3.842-71.117l-3.089,1.814
	c2.015,9.463-3.644,12.191-8.181,18.895c-8.014,11.818-17.087,29.555,12.91,52.779L204.894,295.47"/>
<path fill="#FE8F03" d="M199.603,209.599c-3.652,0-6.153-1.707-7.998-4.734c-3.5-5.497-2.189-10.194-1.281-16.554l9.463-70.957
	l8.196,71.315c0.695,6.39,1.922,11.041-1.465,16.569C204.804,207.892,202.767,209.515,199.603,209.599"/>
</svg>
