<?xml version="1.0" encoding="UTF-8" standalone="no"?>
<!-- Generator: Adobe Illustrator 12.0.0, SVG Export Plug-In . SVG Version: 6.00 Build 51448)  -->
<svg
   xmlns:dc="http://purl.org/dc/elements/1.1/"
   xmlns:cc="http://web.resource.org/cc/"
   xmlns:rdf="http://www.w3.org/1999/02/22-rdf-syntax-ns#"
   xmlns:svg="http://www.w3.org/2000/svg"
   xmlns="http://www.w3.org/2000/svg"
   xmlns:sodipodi="http://sodipodi.sourceforge.net/DTD/sodipodi-0.dtd"
   xmlns:inkscape="http://www.inkscape.org/namespaces/inkscape"
   version="1.1"
   id="Layer_1"
   width="600"
   height="400"
   viewBox="0 0 600 400"
   overflow="visible"
   enable-background="new 0 0 600 400"
   xml:space="preserve"
   sodipodi:version="0.32"
   inkscape:version="0.45.1"
   sodipodi:docname="WOSM.svg"
   sodipodi:docbase="/home/jeoire/Desktop/ScoutWiki/images"
   inkscape:output_extension="org.inkscape.output.svg.inkscape"><metadata
   id="metadata166"><rdf:RDF><cc:Work
       rdf:about=""><dc:format>image/svg+xml</dc:format><dc:type
         rdf:resource="http://purl.org/dc/dcmitype/StillImage" /></cc:Work></rdf:RDF></metadata><defs
   id="defs164" /><sodipodi:namedview
   inkscape:window-height="598"
   inkscape:window-width="822"
   inkscape:pageshadow="2"
   inkscape:pageopacity="0.0"
   guidetolerance="10.0"
   gridtolerance="10.0"
   objecttolerance="10.0"
   borderopacity="1.0"
   bordercolor="#666666"
   pagecolor="#ffffff"
   id="base"
   inkscape:zoom="0.66468037"
   inkscape:cx="240.46346"
   inkscape:cy="176.57907"
   inkscape:window-x="0"
   inkscape:window-y="27"
   inkscape:current-layer="Layer_1" />


<g
   id="g2237"
   transform="translate(3.008965,16.549308)"><path
     transform="matrix(3.8872526,0,0,4.1858947,293.54545,543.12707)"
     d="M 51.904648 -85.947853 A 50.212105 47.015079 0 1 1  -48.519562,-85.947853 A 50.212105 47.015079 0 1 1  51.904648 -85.947853 z"
     sodipodi:ry="47.015079"
     sodipodi:rx="50.212105"
     sodipodi:cy="-85.947853"
     sodipodi:cx="1.6925428"
     id="path3299"
     style="fill:#6e20a0;fill-opacity:1;stroke:none;stroke-width:2.11400008;stroke-linecap:round;stroke-linejoin:miter;stroke-miterlimit:4;stroke-dasharray:none;stroke-opacity:1"
     sodipodi:type="arc" /><g
     id="fleur_de_lis">
	<path
   id="path6"
   d="M 342.851,254.746 C 353.851,255.238 360.818,246.806 362.743,235.982 C 349.441,242.204 337.88,233.336 335.116,222.12 C 330.755,223.008 325.819,223.728 320.47,224.258 C 323.313,237.093 328.742,254.114 342.851,254.746 z "
   style="fill:#ffffff" />
	<path
   id="path8"
   d="M 237.458,235.982 C 239.383,246.805 246.351,255.238 257.354,254.746 C 271.448,254.114 276.878,237.123 279.725,224.291 C 274.379,223.776 269.439,223.066 265.065,222.19 C 262.27,233.372 250.732,242.191 237.458,235.982 z "
   style="fill:#ffffff" />
	<ellipse
   id="ellipse10"
   ry="6.1030002"
   rx="42.978001"
   cy="211.75101"
   cx="299.91699"
   sodipodi:cx="299.91699"
   sodipodi:cy="211.75101"
   sodipodi:rx="42.978001"
   sodipodi:ry="6.1030002"
   style="fill:none;stroke:#ffffff;stroke-width:3.79999995" />
	<g
   id="g12">
		<g
   id="g14">
			<path
   id="path16"
   d="M 233.971,133.507 C 209.216,129.03 191.068,149.185 191.351,170.261 C 191.603,189.078 203.885,204.429 225.197,203.636 C 223.458,193.038 227.629,183.569 235.643,180.823 C 250.422,175.761 259.593,189.873 262.686,201.915 C 267.636,200.804 273.427,199.913 279.794,199.303 C 275.574,169.824 261.791,138.539 233.971,133.507 z M 220.404,166.331 L 218.823,175.745 L 214.571,167.209 L 205.137,168.604 L 211.942,161.923 L 207.692,153.39 L 216.147,157.792 L 222.951,151.109 L 221.386,160.516 L 229.844,164.92 L 220.404,166.331 z "
   style="fill:#ffffff" />
		</g>
	</g>
	<g
   id="g18">
		<g
   id="g20">
			<path
   id="path22"
   d="M 408.111,165.192 C 406.353,147.988 389.778,130.911 368.833,133.506 C 338.249,137.298 324.363,168.878 320.075,199.345 C 326.435,199.971 332.206,200.879 337.127,202.005 C 338.932,187.84 355.317,172.641 368.833,183.357 C 373.843,187.33 375.714,195.792 374.684,204.059 C 397.938,203.534 410.314,186.772 408.111,165.192 z M 385.063,166.231 L 383.482,175.645 L 379.23,167.109 L 369.798,168.505 L 376.601,161.823 L 372.353,153.29 L 380.807,157.691 L 387.61,151.009 L 386.047,160.415 L 394.505,164.82 L 385.063,166.231 z "
   style="fill:#ffffff" />
		</g>
	</g>
	<path
   id="path24"
   d="M 299.929,99.037 C 299.927,99.008 299.926,98.979 299.923,98.95 L 299.936,98.943 C 299.934,98.974 299.932,99.004 299.929,99.037 C 303.607,151.387 303.018,194.091 302.949,198.303 C 307.559,198.368 312.015,198.579 316.246,198.918 C 317.081,183.816 328.127,161.046 328.127,161.046 C 341.236,136.035 340.084,122.925 340.084,122.925 C 339.45,94.981 314.327,80.319 314.327,80.319 C 306.842,74.9 299.961,67.656 299.927,67.622 C 299.825,67.729 292.981,74.92 285.533,80.312 C 285.533,80.312 260.41,94.973 259.776,122.917 C 259.776,122.917 258.624,136.027 271.733,161.038 C 271.733,161.038 282.779,183.806 283.614,198.908 C 287.845,198.571 292.302,198.363 296.912,198.3 C 296.842,194.116 296.251,151.403 299.929,99.037 z "
   style="fill:#ffffff" />
	<path
   id="path26"
   d="M 300.173,260.278 L 300.137,260.281 C 297.477,246.841 297.406,229.063 297.421,225.41 C 292.446,225.355 287.651,225.128 283.118,224.756 C 280.274,243.152 270.187,255.541 270.187,255.541 C 280.52,275.809 300.136,283.52 300.136,283.52 L 300.172,283.517 C 300.172,283.517 319.788,275.805 330.121,255.538 C 330.121,255.538 320.017,243.129 317.185,224.707 C 312.657,225.094 307.865,225.336 302.887,225.404 C 302.905,229.047 302.833,246.833 300.173,260.278 z "
   style="fill:#ffffff" />
</g><g
     id="rope">
	<path
   id="path29"
   d="M 201.747,285.277 C 201.747,285.277 203.304,285.455 204.165,285.106 C 204.862,284.936 206.073,284.066 206.941,283.548 C 207.631,283.197 208.327,282.326 209.363,281.984 C 209.363,281.984 210.747,281.641 212.139,281.812 C 208.498,278.689 205.033,275.561 201.915,272.092 L 201.915,272.267 C 200.701,271.913 199.143,272.267 199.143,272.267 C 198.104,272.437 197.235,273.134 196.545,273.65 C 195.848,274.003 194.462,274.693 193.769,274.871 C 192.904,275.043 191.168,274.693 191.168,274.693 C 194.462,278.336 197.932,281.812 201.566,285.277 L 201.747,285.277 L 201.747,285.277 z "
   clip-rule="evenodd"
   style="fill:#ffffff;fill-rule:evenodd" />
	<path
   id="path31"
   d="M 216.633,297.2 C 216.633,297.2 218.197,297.028 219.062,296.683 C 219.754,296.336 220.797,295.469 221.488,294.78 C 222.184,294.259 222.699,293.393 223.743,292.871 C 223.743,292.871 225.129,292.353 226.511,292.353 C 222.528,289.754 218.715,287.157 215.074,284.212 L 215.074,284.391 C 213.863,284.212 212.479,284.563 212.479,284.563 C 211.265,284.91 210.575,285.776 210.05,286.292 C 209.188,286.812 207.977,287.68 207.28,287.851 C 206.412,288.198 204.855,288.026 204.855,288.026 C 208.492,291.314 212.479,294.259 216.461,297.201 L 216.633,297.201 L 216.633,297.2 z "
   clip-rule="evenodd"
   style="fill:#ffffff;fill-rule:evenodd" />
	<path
   id="path33"
   d="M 232.916,307.079 C 232.916,307.079 234.474,306.725 235.344,306.383 C 235.862,305.864 236.901,304.824 237.419,304.129 C 238.115,303.439 238.46,302.57 239.503,301.88 C 239.503,301.88 240.714,301.184 242.1,301.013 C 237.77,299.11 233.606,296.856 229.623,294.436 L 229.797,294.436 C 228.411,294.607 227.025,295.126 227.025,295.126 C 225.989,295.647 225.466,296.51 224.949,297.206 C 224.252,297.726 223.213,298.765 222.523,299.109 C 221.654,299.454 220.096,299.625 220.096,299.625 C 224.081,302.227 228.411,304.824 232.746,307.079 L 232.916,307.079 L 232.916,307.079 z "
   clip-rule="evenodd"
   style="fill:#ffffff;fill-rule:evenodd" />
	<path
   id="path35"
   d="M 250.406,314.693 C 250.406,314.693 251.969,314.35 252.659,313.656 C 253.184,313.135 254.046,312.097 254.571,311.234 C 254.913,310.538 255.261,309.499 256.3,308.809 C 256.3,308.809 257.341,307.939 258.727,307.594 C 254.218,306.209 249.715,304.477 245.559,302.57 L 245.559,302.749 C 244.349,302.92 243.134,303.609 243.134,303.609 C 242.095,304.305 241.747,305.342 241.226,306.036 C 240.537,306.725 239.668,307.767 238.979,308.291 C 238.282,308.81 236.725,308.979 236.725,308.979 C 241.054,311.234 245.559,313.135 250.235,314.869 L 250.406,314.693 L 250.406,314.693 z "
   clip-rule="evenodd"
   style="fill:#ffffff;fill-rule:evenodd" />
	<path
   id="path37"
   d="M 361.951,309.849 C 361.951,309.849 362.639,308.464 362.813,307.595 C 362.813,306.901 362.638,305.343 362.466,304.478 C 362.294,303.61 361.776,302.749 361.776,301.537 C 361.776,301.537 362.123,300.151 362.638,298.936 C 358.481,301.184 354.326,303.095 349.989,304.825 C 349.302,305.865 348.777,307.251 348.777,307.251 C 348.43,308.639 348.607,309.153 348.607,310.197 C 348.777,311.057 348.43,312.623 348.26,313.313 C 348.087,314.179 347.389,315.91 347.389,315.91 C 351.901,314.351 357.443,312.098 361.951,310.019 L 361.951,309.849 L 361.951,309.849 z "
   clip-rule="evenodd"
   style="fill:#ffffff;fill-rule:evenodd" />
	<path
   id="path39"
   d="M 378.58,300.842 C 378.58,300.842 379.267,299.282 379.267,298.242 C 379.095,297.553 378.75,296.165 378.397,295.297 C 378.053,294.607 377.537,293.74 377.537,292.525 C 377.537,292.525 377.537,290.968 378.054,289.755 C 374.072,292.525 370.086,294.951 366.102,297.206 L 366.274,297.206 C 365.578,298.42 365.408,299.807 365.408,299.807 C 365.408,301.013 365.926,301.88 366.102,302.749 C 366.274,303.609 366.618,304.996 366.618,305.864 C 366.447,306.725 365.75,308.113 365.75,308.113 C 370.085,306.036 374.413,303.609 378.58,300.842 L 378.58,300.842 z "
   clip-rule="evenodd"
   style="fill:#ffffff;fill-rule:evenodd" />
	<path
   id="path41"
   d="M 393.991,289.409 C 393.991,289.409 394.337,287.85 394.337,286.982 C 394.164,286.292 393.467,284.91 393.123,284.041 C 392.779,283.352 391.91,282.655 391.736,281.441 C 391.736,281.441 391.736,280.056 391.91,278.67 C 388.442,281.792 384.805,284.909 381.165,287.679 L 381.165,287.507 C 380.816,288.893 380.816,290.278 380.816,290.278 C 380.816,291.486 381.513,292.353 381.858,293.049 C 382.203,293.911 382.729,295.296 382.729,295.993 C 382.729,296.854 382.203,298.414 382.203,298.414 C 386.365,295.811 390.179,292.698 393.991,289.582 L 393.991,289.409 L 393.991,289.409 z "
   clip-rule="evenodd"
   style="fill:#ffffff;fill-rule:evenodd" />
	<path
   id="path43"
   d="M 407.849,276.243 C 407.849,276.243 408.022,274.686 407.668,273.825 C 407.496,273.13 406.634,271.914 406.108,271.052 C 405.766,270.356 404.898,269.84 404.551,268.625 C 404.551,268.625 404.207,267.238 404.379,265.857 C 401.255,269.492 398.14,272.956 394.845,276.069 C 394.674,277.284 394.845,278.843 394.845,278.843 C 395.019,280.056 395.714,280.748 396.232,281.441 C 396.582,282.307 397.272,283.522 397.449,284.212 C 397.62,285.08 397.272,286.811 397.272,286.811 C 400.914,283.522 404.551,280.056 407.848,276.422 L 407.848,276.243 L 407.849,276.243 z "
   clip-rule="evenodd"
   style="fill:#ffffff;fill-rule:evenodd" />
	<path
   id="path45"
   d="M 419.795,261.354 C 419.795,261.354 419.795,259.796 419.277,258.928 C 419.105,258.239 418.066,257.199 417.541,256.501 C 416.852,255.812 415.982,255.294 415.463,254.254 C 415.463,254.254 414.943,252.867 414.943,251.481 C 412.516,255.465 409.744,259.272 406.798,262.912 L 406.973,262.912 C 406.798,264.123 407.145,265.681 407.145,265.681 C 407.49,266.726 408.358,267.416 408.875,268.111 C 409.4,268.799 410.261,270.013 410.609,270.703 C 410.784,271.573 410.784,273.132 410.784,273.132 C 413.899,269.494 417.02,265.511 419.794,261.528 L 419.794,261.354 L 419.795,261.354 z "
   clip-rule="evenodd"
   style="fill:#ffffff;fill-rule:evenodd" />
	<path
   id="path47"
   d="M 429.665,245.072 C 429.665,245.072 429.32,243.512 428.968,242.651 C 428.452,242.13 427.408,241.092 426.724,240.571 C 426.198,240.053 425.165,239.528 424.469,238.495 C 424.469,238.495 423.773,237.28 423.601,235.898 C 421.696,240.224 419.442,244.381 417.016,248.359 L 417.188,248.187 C 417.188,249.573 417.708,250.958 417.708,250.958 C 418.231,251.999 419.271,252.517 419.788,253.038 C 420.485,253.728 421.347,254.77 421.696,255.464 C 422.215,256.329 422.215,257.884 422.215,257.884 C 424.986,253.901 427.409,249.572 429.666,245.24 L 429.666,245.072 L 429.665,245.072 z "
   clip-rule="evenodd"
   style="fill:#ffffff;fill-rule:evenodd" />
	<path
   id="path49"
   d="M 437.808,227.753 C 437.808,227.753 437.284,226.195 436.765,225.499 C 436.422,224.813 435.208,223.944 434.511,223.425 C 433.823,222.902 432.953,222.559 432.259,221.516 C 432.259,221.516 431.395,220.311 431.222,218.923 C 429.488,223.425 427.409,227.583 425.33,231.739 C 425.501,232.951 426.197,234.34 426.197,234.34 C 426.716,235.372 427.756,235.716 428.275,236.411 C 428.967,236.93 430.01,237.971 430.355,238.667 C 430.872,239.357 431.05,241.087 431.05,241.087 C 433.47,236.758 435.723,232.429 437.807,227.929 L 437.807,227.753 L 437.808,227.753 z "
   clip-rule="evenodd"
   style="fill:#ffffff;fill-rule:evenodd" />
	<path
   id="path51"
   d="M 442.653,209.396 C 442.653,209.396 441.964,207.837 441.439,207.142 C 440.748,206.797 439.537,206.102 438.669,205.583 C 437.979,205.239 436.94,205.068 436.067,204.372 C 436.067,204.372 435.027,203.157 434.509,201.945 C 433.642,206.626 432.602,211.297 431.385,215.629 C 431.734,216.843 432.772,218.056 432.772,218.056 C 433.469,218.916 434.509,219.094 435.199,219.613 C 436.067,220.131 437.282,220.828 437.8,221.343 C 438.322,222.038 438.84,223.596 438.84,223.596 C 440.4,219.094 441.61,214.243 442.826,209.396 L 442.653,209.396 L 442.653,209.396 z "
   clip-rule="evenodd"
   style="fill:#ffffff;fill-rule:evenodd" />
	<path
   id="path53"
   d="M 445.595,190.515 C 445.595,190.515 444.735,189.129 444.036,188.614 C 443.35,188.093 441.957,187.572 441.095,187.4 C 440.401,187.057 439.361,187.057 438.318,186.36 C 438.318,186.36 437.284,185.496 436.588,184.283 C 436.243,188.957 435.892,193.635 435.201,198.309 L 435.201,198.138 C 435.72,199.349 436.76,200.389 436.76,200.389 C 437.802,201.256 438.842,201.256 439.531,201.6 C 440.401,201.947 441.611,202.644 442.308,203.159 C 442.997,203.678 443.693,205.235 443.693,205.235 C 444.562,200.389 445.254,195.541 445.778,190.515 L 445.595,190.515 L 445.595,190.515 z "
   clip-rule="evenodd"
   style="fill:#ffffff;fill-rule:evenodd" />
	<path
   id="path55"
   d="M 446.118,171.466 C 446.118,171.466 445.079,170.079 444.211,169.736 C 443.522,169.386 442.136,169.042 441.267,168.867 C 440.401,168.696 439.361,168.867 438.318,168.349 C 438.318,168.349 437.106,167.484 436.243,166.445 C 436.588,171.122 436.76,175.796 436.76,180.471 L 436.76,180.299 C 437.457,181.51 438.671,182.379 438.671,182.379 C 439.531,183.071 440.572,183.071 441.441,183.244 C 442.309,183.415 443.694,183.937 444.385,184.28 C 445.08,184.801 445.949,186.187 445.949,186.187 C 446.291,181.339 446.291,176.486 446.118,171.466 L 446.118,171.466 z "
   clip-rule="evenodd"
   style="fill:#ffffff;fill-rule:evenodd" />
	<path
   id="path57"
   d="M 444.036,152.416 C 444.036,152.416 442.827,151.375 441.964,151.029 C 441.267,150.686 439.71,150.686 438.841,150.511 C 437.972,150.511 436.934,150.858 435.898,150.337 C 435.898,150.337 434.511,149.818 433.644,148.779 C 434.685,153.453 435.375,158.131 435.898,162.633 L 435.898,162.462 C 436.759,163.502 437.972,164.194 437.972,164.194 C 439.185,164.888 440.227,164.712 440.925,164.712 C 441.964,164.888 443.351,165.231 444.036,165.578 C 444.734,165.924 445.948,167.139 445.948,167.139 C 445.594,162.286 444.908,157.438 444.036,152.588 L 444.036,152.416 L 444.036,152.416 z "
   clip-rule="evenodd"
   style="fill:#ffffff;fill-rule:evenodd" />
	<path
   id="path59"
   d="M 439.367,133.881 C 439.367,133.881 438.15,133.016 437.283,132.673 C 436.416,132.498 435.028,132.673 434.166,132.673 C 433.299,132.844 432.259,133.192 431.215,132.844 C 431.215,132.844 429.83,132.498 428.616,131.632 C 430.355,136.132 431.74,140.638 432.773,145.14 L 432.773,144.969 C 433.816,145.833 435.2,146.351 435.2,146.351 C 436.242,146.872 437.283,146.523 438.15,146.523 C 439.013,146.523 440.405,146.698 441.094,146.873 C 441.963,147.217 443.35,148.26 443.35,148.26 C 442.307,143.41 441.094,138.733 439.537,133.881 L 439.367,133.881 L 439.367,133.881 z "
   clip-rule="evenodd"
   style="fill:#ffffff;fill-rule:evenodd" />
	<path
   id="path61"
   d="M 432.609,116.045 C 432.609,116.045 431.05,115.352 430.182,115.18 C 429.487,115.18 427.928,115.352 427.066,115.697 C 426.371,115.872 425.33,116.391 424.116,116.217 C 424.116,116.217 422.732,115.872 421.519,115.352 C 423.772,119.507 425.673,123.839 427.408,128.166 L 427.408,127.994 C 428.452,128.687 429.84,129.03 429.84,129.03 C 431.051,129.381 432.085,128.859 432.78,128.859 C 433.823,128.687 435.208,128.512 435.897,128.687 C 436.764,128.859 438.15,129.895 438.15,129.895 C 436.593,125.224 434.684,120.719 432.609,116.216 L 432.609,116.045 L 432.609,116.045 z "
   clip-rule="evenodd"
   style="fill:#ffffff;fill-rule:evenodd" />
	<path
   id="path63"
   d="M 423.426,99.396 C 423.426,99.396 421.867,98.703 421,98.878 C 420.139,98.878 418.746,99.222 417.883,99.571 C 417.188,99.916 416.324,100.436 415.115,100.436 C 415.115,100.436 413.728,100.436 412.341,99.915 C 415.115,103.906 417.541,107.897 419.787,111.885 C 421,112.407 422.385,112.58 422.385,112.58 C 423.601,112.752 424.469,112.06 425.337,111.885 C 426.197,111.713 427.586,111.364 428.452,111.364 C 429.32,111.539 430.708,112.233 430.708,112.233 C 428.624,107.897 426.197,103.558 423.426,99.396 L 423.426,99.396 z "
   clip-rule="evenodd"
   style="fill:#ffffff;fill-rule:evenodd" />
	<path
   id="path65"
   d="M 412.17,84.003 C 412.17,84.003 410.441,83.659 409.571,83.83 C 408.882,83.83 407.49,84.523 406.799,84.869 C 405.933,85.388 405.242,86.081 404.029,86.253 C 404.029,86.253 402.643,86.426 401.256,86.081 C 404.546,89.545 407.49,93.181 410.27,96.818 L 410.096,96.818 C 411.475,97.163 412.866,97.163 412.866,97.163 C 414.083,97.163 414.944,96.469 415.639,96.125 C 416.5,95.776 417.883,95.433 418.58,95.26 C 419.625,95.26 421.182,95.777 421.182,95.777 C 418.408,91.796 415.457,87.812 412.17,84.003 L 412.17,84.003 z "
   clip-rule="evenodd"
   style="fill:#ffffff;fill-rule:evenodd" />
	<path
   id="path67"
   d="M 398.838,70.171 C 398.838,70.171 397.273,69.997 396.411,70.342 C 395.715,70.515 394.503,71.381 393.636,71.898 C 392.946,72.246 392.428,73.111 391.215,73.455 C 391.215,73.455 389.829,73.8 388.436,73.627 C 392.078,76.74 395.543,79.853 398.66,83.312 L 398.66,83.139 C 400.047,83.484 401.439,83.139 401.439,83.139 C 402.644,82.967 403.34,82.273 404.038,81.756 C 404.899,81.409 406.109,80.715 406.807,80.544 C 407.844,80.371 409.407,80.716 409.407,80.716 C 406.11,77.087 402.645,73.629 399.013,70.173 L 398.838,70.173 L 398.838,70.171 z "
   clip-rule="evenodd"
   style="fill:#ffffff;fill-rule:evenodd" />
	<path
   id="path69"
   d="M 384.115,58.198 C 384.115,58.198 382.382,58.371 381.513,58.719 C 380.816,59.064 379.784,59.932 379.087,60.62 C 378.396,61.142 377.876,62.007 376.832,62.527 C 376.832,62.527 375.45,63.048 374.062,63.048 C 378.046,65.642 381.857,68.243 385.498,71.185 L 385.498,71.014 C 386.884,71.185 388.269,70.84 388.269,70.84 C 389.31,70.492 390,69.627 390.696,69.107 C 391.391,68.586 392.597,67.721 393.293,67.549 C 394.163,67.204 395.72,67.377 395.72,67.377 C 392.083,64.085 388.271,61.142 384.115,58.198 L 384.115,58.198 z "
   clip-rule="evenodd"
   style="fill:#ffffff;fill-rule:evenodd" />
	<path
   id="path71"
   d="M 367.659,48.326 C 367.659,48.326 366.1,48.671 365.406,49.019 C 364.716,49.539 363.675,50.577 363.157,51.27 C 362.632,51.963 362.117,52.827 361.074,53.521 C 361.074,53.521 359.862,54.212 358.476,54.389 C 362.807,56.292 366.969,58.541 370.955,60.968 L 370.783,60.968 C 372.169,60.792 373.553,60.276 373.553,60.276 C 374.594,59.755 375.11,58.889 375.628,58.197 C 376.325,57.677 377.363,56.635 378.053,56.292 C 378.923,55.947 380.48,55.77 380.48,55.77 L 380.652,55.77 C 376.497,53.176 372.17,50.576 367.833,48.325 L 367.659,48.325 L 367.659,48.326 z "
   clip-rule="evenodd"
   style="fill:#ffffff;fill-rule:evenodd" />
	<path
   id="path73"
   d="M 350.342,40.706 C 350.342,40.706 348.608,41.051 348.088,41.745 C 347.39,42.265 346.529,43.306 346.012,44.171 C 345.662,44.864 345.319,45.9 344.448,46.594 C 344.448,46.594 343.237,47.459 342.021,47.807 C 346.53,49.194 350.862,50.924 355.017,52.829 L 355.017,52.657 C 356.229,52.482 357.615,51.792 357.615,51.792 C 358.482,51.095 359.001,50.059 359.526,49.366 C 360.041,48.673 360.911,47.637 361.601,47.115 C 362.295,46.595 364.026,46.424 364.026,46.424 C 359.526,44.173 355.017,42.266 350.342,40.536 L 350.342,40.706 L 350.342,40.706 z "
   clip-rule="evenodd"
   style="fill:#ffffff;fill-rule:evenodd" />
	<path
   id="path75"
   d="M 331.984,35.334 C 331.984,35.334 330.421,36.028 329.903,36.721 C 329.383,37.241 328.689,38.453 328.344,39.321 C 328,40.012 327.819,41.051 326.958,41.915 C 326.958,41.915 325.918,42.957 324.701,43.477 C 329.206,44.342 333.886,45.38 338.389,46.765 L 338.216,46.593 C 339.429,46.245 340.643,45.38 340.643,45.38 C 341.511,44.515 341.855,43.477 342.207,42.783 C 342.722,42.092 343.411,40.877 344.109,40.357 C 344.628,39.665 346.364,39.148 346.364,39.148 C 341.683,37.587 336.831,36.377 331.983,35.163 L 331.983,35.334 L 331.984,35.334 z "
   clip-rule="evenodd"
   style="fill:#ffffff;fill-rule:evenodd" />
	<path
   id="path77"
   d="M 313.104,32.392 C 313.104,32.392 311.718,33.257 311.2,33.95 C 310.679,34.643 310.333,36.029 309.988,36.893 C 309.635,37.587 309.635,38.627 308.945,39.665 C 308.945,39.665 308.079,40.706 306.866,41.4 C 311.719,41.745 316.22,42.092 320.902,42.784 L 320.725,42.784 C 321.942,42.264 322.982,41.223 322.982,41.223 C 323.842,40.357 323.842,39.321 324.195,38.454 C 324.539,37.587 325.229,36.377 325.755,35.683 C 326.27,35.162 327.826,34.298 327.826,34.298 C 322.982,33.433 318.129,32.74 313.276,32.392 L 313.104,32.392 L 313.104,32.392 z "
   clip-rule="evenodd"
   style="fill:#ffffff;fill-rule:evenodd" />
	<path
   id="path79"
   d="M 294.05,32.046 C 294.05,32.046 292.664,33.084 292.318,33.778 C 291.975,34.469 291.625,35.856 291.45,36.72 C 291.278,37.585 291.45,38.626 290.934,39.663 C 290.934,39.663 290.067,40.876 289.023,41.743 C 293.703,41.395 298.557,41.222 303.059,41.395 L 303.059,41.222 C 304.099,40.53 304.966,39.32 304.966,39.32 C 305.655,38.449 305.655,37.414 305.831,36.549 C 306.18,35.679 306.524,34.298 307.043,33.605 C 307.568,32.913 308.779,32.046 308.779,32.046 L 308.95,32.046 C 303.926,31.699 299.074,31.699 294.049,31.872 L 294.049,32.046 L 294.05,32.046 z "
   clip-rule="evenodd"
   style="fill:#ffffff;fill-rule:evenodd" />
	<path
   id="path81"
   d="M 274.995,34.122 C 274.995,34.122 273.962,35.163 273.612,36.028 C 273.441,36.721 273.266,38.279 273.266,39.147 C 273.094,40.012 273.441,41.05 272.922,42.091 C 272.922,42.091 272.404,43.476 271.364,44.341 C 276.038,43.476 280.719,42.608 285.218,42.091 C 286.261,41.222 286.956,40.011 286.956,40.011 C 287.472,38.97 287.3,37.934 287.472,37.065 C 287.472,36.2 287.819,34.642 288.17,33.948 C 288.516,33.255 289.726,32.045 289.726,32.045 C 284.875,32.562 280.022,33.083 275.176,33.948 L 274.995,34.122 L 274.995,34.122 z "
   clip-rule="evenodd"
   style="fill:#ffffff;fill-rule:evenodd" />
	<path
   id="path83"
   d="M 256.465,38.627 C 256.465,38.627 255.598,39.84 255.426,40.706 C 255.254,41.572 255.254,42.957 255.254,43.822 C 255.426,44.687 255.775,45.729 255.426,46.765 C 255.426,46.765 255.079,48.326 254.217,49.365 C 258.719,47.636 263.222,46.422 267.727,45.207 L 267.556,45.207 C 268.425,44.17 269.115,42.957 269.115,42.957 C 269.458,41.744 269.115,40.706 269.115,40.012 C 269.115,38.971 269.287,37.586 269.458,36.892 C 269.812,36.028 270.851,34.816 270.851,34.816 C 265.998,35.682 261.319,36.892 256.637,38.453 L 256.465,38.627 L 256.465,38.627 z "
   clip-rule="evenodd"
   style="fill:#ffffff;fill-rule:evenodd" />
	<path
   id="path85"
   d="M 238.806,45.555 C 238.806,45.555 237.936,46.941 237.936,47.805 C 237.762,48.499 238.108,50.056 238.281,50.922 C 238.452,51.79 238.978,52.655 238.806,53.868 C 238.806,53.868 238.624,55.251 237.936,56.464 C 242.093,54.213 246.427,52.307 250.757,50.577 L 250.586,50.577 C 251.273,49.535 251.797,48.15 251.797,48.15 C 251.968,46.941 251.625,46.076 251.455,45.206 C 251.273,44.341 251.273,42.783 251.455,42.091 C 251.455,41.224 252.487,39.84 252.487,39.84 C 247.814,41.399 243.304,43.304 238.806,45.38 L 238.806,45.555 L 238.806,45.555 z "
   clip-rule="evenodd"
   style="fill:#ffffff;fill-rule:evenodd" />
	<path
   id="path87"
   d="M 222.006,54.561 C 222.006,54.561 221.483,56.12 221.483,57.158 C 221.483,57.849 222.006,59.235 222.178,60.103 C 222.522,60.793 223.219,61.663 223.219,62.872 C 223.219,62.872 223.043,64.433 222.694,65.643 C 226.511,62.872 230.503,60.449 234.665,58.198 L 234.494,58.198 C 235.019,56.985 235.19,55.6 235.19,55.6 C 235.362,54.387 234.847,53.522 234.666,52.655 C 234.322,51.79 233.979,50.406 234.15,49.538 C 234.15,48.67 234.847,47.289 234.847,47.289 C 230.503,49.364 226.166,51.791 222.006,54.561 L 222.006,54.561 z "
   clip-rule="evenodd"
   style="fill:#ffffff;fill-rule:evenodd" />
	<path
   id="path89"
   d="M 206.572,65.992 C 206.572,65.992 206.222,67.55 206.395,68.417 C 206.572,69.111 207.089,70.496 207.607,71.361 C 207.959,72.053 208.646,72.746 208.818,73.956 C 208.818,73.956 208.999,75.343 208.646,76.727 C 212.115,73.439 215.756,70.495 219.565,67.721 L 219.393,67.898 C 219.913,66.511 219.737,65.127 219.737,65.127 C 219.737,63.913 219.05,63.049 218.872,62.355 C 218.526,61.491 218.008,60.104 217.836,59.412 C 217.836,58.546 218.355,56.986 218.355,56.986 C 214.37,59.586 210.382,62.528 206.573,65.82 L 206.573,65.992 L 206.572,65.992 z "
   clip-rule="evenodd"
   style="fill:#ffffff;fill-rule:evenodd" />
	<path
   id="path91"
   d="M 192.905,79.153 C 192.905,79.153 192.733,80.711 192.905,81.578 C 193.079,82.268 193.948,83.483 194.463,84.349 C 194.988,85.041 195.684,85.561 196.028,86.772 C 196.028,86.772 196.374,88.156 196.202,89.543 C 199.322,85.906 202.625,82.443 205.92,79.327 L 205.748,79.327 C 206.091,78.113 205.92,76.556 205.92,76.556 C 205.566,75.343 204.88,74.65 204.529,73.956 C 204.008,73.091 203.316,71.881 203.144,71.188 C 202.972,70.32 203.316,68.59 203.316,68.59 C 199.675,71.881 196.202,75.342 192.904,78.978 L 192.904,79.153 L 192.905,79.153 z "
   clip-rule="evenodd"
   style="fill:#ffffff;fill-rule:evenodd" />
	<path
   id="path93"
   d="M 180.957,94.047 C 180.957,94.047 180.957,95.606 181.3,96.47 C 181.65,97.164 182.514,98.204 183.208,98.897 C 183.725,99.59 184.594,100.106 185.11,101.148 C 185.11,101.148 185.637,102.535 185.637,103.919 C 188.232,99.935 191.004,96.126 193.777,92.49 C 193.777,91.276 193.43,89.719 193.43,89.719 C 193.086,88.679 192.219,87.986 191.701,87.295 C 191.176,86.602 190.317,85.388 190.142,84.696 C 189.788,83.83 189.963,82.269 189.963,82.269 C 186.672,85.91 183.724,89.719 180.78,93.876 L 180.957,94.047 L 180.957,94.047 z "
   clip-rule="evenodd"
   style="fill:#ffffff;fill-rule:evenodd" />
	<path
   id="path95"
   d="M 170.907,110.327 C 170.907,110.327 171.254,111.888 171.779,112.581 C 172.122,113.271 173.165,114.311 173.851,114.832 C 174.551,115.349 175.416,115.869 176.109,116.91 C 176.109,116.91 176.801,118.121 176.973,119.505 C 179.056,115.178 181.305,111.02 183.556,107.039 L 183.556,107.21 C 183.385,105.825 182.868,104.439 182.868,104.439 C 182.345,103.402 181.477,102.881 180.961,102.361 C 180.261,101.667 179.228,100.631 178.878,99.937 C 178.532,99.07 178.36,97.511 178.36,97.511 C 175.763,101.494 173.164,105.824 170.906,110.154 L 170.906,110.327 L 170.907,110.327 z "
   clip-rule="evenodd"
   style="fill:#ffffff;fill-rule:evenodd" />
	<path
   id="path97"
   d="M 163.292,127.647 C 163.292,127.647 163.811,129.381 164.326,130.073 C 164.849,130.589 166.062,131.456 166.755,131.975 C 167.448,132.324 168.491,132.668 169.178,133.536 C 169.178,133.536 170.05,134.747 170.393,136.13 C 171.957,131.63 173.514,127.125 175.416,122.973 L 175.244,122.973 C 175.072,121.758 174.375,120.372 174.375,120.372 C 173.685,119.506 172.646,118.988 172.128,118.467 C 171.258,117.946 170.22,117.081 169.877,116.39 C 169.352,115.696 169.005,113.966 169.005,113.966 C 166.927,118.468 165.025,122.974 163.292,127.647 L 163.292,127.647 z "
   clip-rule="evenodd"
   style="fill:#ffffff;fill-rule:evenodd" />
	<path
   id="path99"
   d="M 157.921,146.005 C 157.921,146.005 158.61,147.563 159.308,148.081 C 159.824,148.602 161.038,149.295 161.909,149.817 C 162.774,150.16 163.811,150.16 164.678,151.025 C 164.678,151.025 165.547,152.067 166.062,153.276 C 166.933,148.773 167.973,144.1 169.359,139.596 L 169.185,139.771 C 168.841,138.557 167.973,137.345 167.973,137.345 C 167.106,136.48 166.237,136.13 165.375,135.787 C 164.678,135.266 163.467,134.572 162.946,133.88 C 162.251,133.364 161.734,131.807 161.734,131.807 C 160.351,136.31 158.964,141.156 157.921,146.005 L 157.921,146.005 z "
   clip-rule="evenodd"
   style="fill:#ffffff;fill-rule:evenodd" />
	<path
   id="path101"
   d="M 154.976,164.882 C 154.976,164.882 155.843,166.266 156.709,166.787 C 157.228,167.308 158.617,167.828 159.48,168.002 C 160.351,168.345 161.387,168.345 162.259,169.038 C 162.259,169.038 163.474,169.903 164.16,171.118 C 164.332,166.445 164.857,161.767 165.547,157.089 L 165.376,157.264 C 164.857,156.053 163.818,155.013 163.818,155.013 C 162.947,154.145 161.91,154.145 161.045,153.802 C 160.352,153.452 158.966,152.759 158.441,152.243 C 157.752,151.722 157.055,150.164 157.055,150.164 C 156.014,155.013 155.323,159.859 154.976,164.882 L 154.976,164.882 z "
   clip-rule="evenodd"
   style="fill:#ffffff;fill-rule:evenodd" />
	<path
   id="path103"
   d="M 154.646,183.937 C 154.646,183.937 155.682,185.323 156.375,185.666 C 157.065,186.013 158.624,186.359 159.491,186.534 C 160.181,186.706 161.221,186.534 162.258,187.053 C 162.258,187.053 163.645,187.921 164.331,188.957 C 163.987,184.28 163.816,179.606 163.987,174.928 C 163.126,173.891 162.086,173.026 162.086,173.026 C 161.05,172.33 160.011,172.33 159.142,172.158 C 158.277,171.815 156.893,171.466 156.375,170.944 C 155.508,170.6 154.646,169.214 154.646,169.214 C 154.302,174.064 154.302,178.912 154.474,183.937 L 154.646,183.937 L 154.646,183.937 z "
   clip-rule="evenodd"
   style="fill:#ffffff;fill-rule:evenodd" />
	<path
   id="path105"
   d="M 156.709,202.986 C 156.709,202.986 157.921,204.026 158.792,204.373 C 159.48,204.715 160.866,204.715 161.734,204.889 C 162.602,204.889 163.646,204.545 164.677,205.064 C 164.677,205.064 166.067,205.585 167.105,206.627 C 166.067,201.946 165.202,197.272 164.677,192.77 C 163.816,191.903 162.601,191.039 162.601,191.039 C 161.56,190.519 160.521,190.691 159.65,190.519 C 158.791,190.519 157.405,190.174 156.708,189.827 C 155.842,189.48 154.804,188.266 154.804,188.266 C 155.152,193.115 155.67,197.967 156.534,202.816 L 156.709,202.986 L 156.709,202.986 z "
   clip-rule="evenodd"
   style="fill:#ffffff;fill-rule:evenodd" />
	<path
   id="path107"
   d="M 161.209,221.516 C 161.209,221.516 162.595,222.385 163.467,222.559 C 164.16,222.73 165.547,222.73 166.586,222.73 C 167.276,222.559 168.319,222.212 169.531,222.559 C 169.531,222.559 170.915,222.902 171.958,223.771 C 170.399,219.27 169.014,214.768 167.801,210.258 L 167.801,210.431 C 166.934,209.569 165.547,208.873 165.547,208.873 C 164.332,208.528 163.467,208.873 162.596,208.873 C 161.562,208.873 160.178,208.701 159.481,208.528 C 158.611,208.185 157.401,207.142 157.401,207.142 C 158.441,211.995 159.652,216.667 161.039,221.343 L 161.209,221.516 L 161.209,221.516 z "
   clip-rule="evenodd"
   style="fill:#ffffff;fill-rule:evenodd" />
	<path
   id="path109"
   d="M 168.138,239.186 C 168.138,239.186 169.524,240.054 170.394,240.054 C 171.26,240.225 172.648,239.874 173.515,239.7 C 174.377,239.528 175.245,239.013 176.461,239.185 C 176.461,239.185 177.847,239.357 179.058,240.053 C 176.803,235.898 174.901,231.566 173.338,227.238 L 173.338,227.409 C 172.13,226.715 170.743,226.372 170.743,226.372 C 169.525,226.023 168.664,226.542 167.794,226.542 C 166.927,226.715 165.369,226.715 164.678,226.715 C 163.811,226.542 162.424,225.499 162.424,225.499 C 163.983,230.181 165.891,234.682 167.966,239.186 L 168.138,239.186 L 168.138,239.186 z "
   clip-rule="evenodd"
   style="fill:#ffffff;fill-rule:evenodd" />
	<path
   id="path111"
   d="M 177.321,255.983 C 177.321,255.983 178.879,256.501 179.748,256.501 C 180.438,256.501 181.82,255.983 182.692,255.812 C 183.557,255.465 184.428,254.772 185.462,254.772 C 185.462,254.772 187.025,254.943 188.236,255.294 C 185.462,251.481 183.035,247.497 180.786,243.513 C 179.576,242.997 178.188,242.823 178.188,242.823 C 176.973,242.652 176.108,243.171 175.237,243.513 C 174.375,243.685 172.991,244.037 172.293,243.861 C 171.428,243.861 169.87,243.171 169.87,243.171 C 172.121,247.498 174.55,251.829 177.145,255.984 L 177.321,255.984 L 177.321,255.983 z "
   clip-rule="evenodd"
   style="fill:#ffffff;fill-rule:evenodd" />
	<path
   id="path113"
   d="M 188.578,271.398 C 188.578,271.398 190.136,271.741 191.003,271.571 C 191.693,271.398 193.086,270.88 193.948,270.355 C 194.644,270.011 195.335,269.322 196.545,269.143 C 196.545,269.143 198.104,268.972 199.315,269.322 C 196.202,265.857 193.257,262.221 190.481,258.408 L 190.481,258.58 C 189.273,258.238 187.709,258.238 187.709,258.238 C 186.494,258.238 185.808,258.927 184.937,259.277 C 184.077,259.448 182.692,259.965 181.995,260.137 C 181.127,260.137 179.57,259.621 179.57,259.621 C 182.339,263.606 185.29,267.586 188.407,271.397 L 188.578,271.397 L 188.578,271.398 z "
   clip-rule="evenodd"
   style="fill:#ffffff;fill-rule:evenodd" />
	<path
   id="path115"
   d="M 234.646,354.877 C 232.22,356.436 230.833,357.649 230.833,357.649 L 238.287,366.307 L 241.403,361.633 L 234.646,354.877 L 234.646,354.877 z "
   clip-rule="evenodd"
   style="fill:#ffffff;fill-rule:evenodd" />
	<path
   id="path117"
   d="M 238.799,350.378 C 245.558,344.837 251.101,352.108 251.101,352.108 L 246.078,356.954 L 238.799,350.378 L 238.799,350.378 z "
   clip-rule="evenodd"
   style="fill:#ffffff;fill-rule:evenodd" />
	<path
   id="path119"
   d="M 357.443,357.131 C 359.697,358.862 361.08,360.077 361.08,360.077 L 353.286,368.562 L 350.335,363.707 L 357.443,357.131 L 357.443,357.131 z "
   clip-rule="evenodd"
   style="fill:#ffffff;fill-rule:evenodd" />
	<path
   id="path121"
   d="M 353.466,352.604 C 346.876,346.693 341.158,353.817 341.158,353.817 L 345.839,358.862 L 353.466,352.604 L 353.466,352.604 z "
   clip-rule="evenodd"
   style="fill:#ffffff;fill-rule:evenodd" />
	<path
   id="path123"
   d="M 340.815,338.079 C 331.979,333.404 327.305,340.155 327.305,340.155 C 332.675,342.753 337.002,348.813 337.002,348.813 L 338.389,351.064 L 338.216,350.894 C 338.216,350.894 345.144,343.448 350.171,348.124 C 348.094,345.349 346.186,342.923 345.144,341.713 C 344.281,340.853 342.723,339.465 340.815,338.079 L 340.815,338.079 z "
   clip-rule="evenodd"
   style="fill:#ffffff;fill-rule:evenodd" />
	<path
   id="path125"
   d="M 344.11,335.996 C 349.307,329.938 347.055,322.662 346.186,319.196 L 335.617,324.049 C 335.789,324.568 337.346,327.512 334.405,330.979 C 334.405,330.979 344.629,335.307 344.11,335.996 L 344.11,335.996 z "
   clip-rule="evenodd"
   style="fill:#ffffff;fill-rule:evenodd" />
	<path
   id="path127"
   d="M 282.282,341.539 C 281.24,341.721 280.371,341.721 279.331,341.721 C 277.601,341.721 275.697,341.367 274.131,340.678 C 272.748,345.179 262.526,344.14 262.526,344.14 C 266.163,347.606 271.015,350.204 276.214,351.065 L 276.214,350.895 C 276.214,350.895 281.928,349.682 282.103,341.368 L 282.282,341.539 L 282.282,341.539 z "
   clip-rule="evenodd"
   style="fill:#ffffff;fill-rule:evenodd" />
	<path
   id="path129"
   d="M 323.5,338.597 C 323.5,338.77 330.599,332.018 335.106,334.094 L 334.065,333.226 C 330.079,330.111 325.056,328.381 320.204,328.208 C 315.874,328.208 308.251,329.42 306.519,332.193 C 306.519,332.193 313.103,333.575 317.259,337.735 C 317.604,338.079 319.343,337.735 323.5,338.597 L 323.5,338.597 z "
   clip-rule="evenodd"
   style="fill:#ffffff;fill-rule:evenodd" />
	<path
   id="path131"
   d="M 259.245,344.837 C 257.169,346.22 255.954,347.427 255.954,347.427 L 253.874,349.336 L 254.046,349.336 C 254.046,349.336 247.463,341.539 242.265,346.047 C 244.347,343.448 246.248,340.853 247.463,339.809 C 248.504,338.597 249.889,337.382 251.963,336.349 L 251.273,336.692 C 252.145,336.349 252.831,336.175 253.527,335.824 C 253.528,335.823 254.913,342.406 259.245,344.837 L 259.245,344.837 z "
   clip-rule="evenodd"
   style="fill:#ffffff;fill-rule:evenodd" />
	<path
   id="path133"
   d="M 312.592,338.939 C 306.526,333.922 300.461,333.053 295.959,331.668 L 295.959,331.668 L 286.95,337.907 L 297.688,341.539 C 300.983,342.406 301.672,343.965 305.832,346.564 C 305.832,346.564 315.365,341.023 312.592,338.939 L 312.592,338.939 z "
   clip-rule="evenodd"
   style="fill:#ffffff;fill-rule:evenodd" />
	<path
   id="path135"
   d="M 331.123,347.948 C 327.654,351.411 321.768,351.755 321.768,351.755 C 317.785,351.937 313.973,351.411 309.29,348.639 C 309.29,348.639 317.089,343.279 316.741,340.678 C 318.645,341.024 324.189,342.063 325.581,341.024 C 325.581,341.023 327.482,345.697 331.123,347.948 L 331.123,347.948 z "
   clip-rule="evenodd"
   style="fill:#ffffff;fill-rule:evenodd" />
	<path
   id="path137"
   d="M 285.217,341.023 L 285.392,340.852 L 289.891,341.889 C 298.041,343.964 299.424,345.178 299.424,345.178 C 299.424,345.178 290.244,353.836 282.094,351.754 C 282.094,351.754 288.162,347.254 285.392,340.852 L 285.217,341.023 L 285.217,341.023 z "
   clip-rule="evenodd"
   style="fill:#ffffff;fill-rule:evenodd" />
	<path
   id="path139"
   d="M 343.071,316.777 C 343.071,316.777 343.412,315.737 343.586,314.869 C 343.766,314.179 344.11,313.136 343.938,312.268 C 343.938,311.407 343.243,310.709 343.586,309.676 C 343.586,309.676 344.454,307.078 345.324,306.035 C 340.815,307.594 334.405,310.017 330.247,312.267 C 329.207,312.791 328.345,313.311 328.345,313.311 C 327.82,314.349 327.649,315.211 327.649,316.08 C 327.649,316.949 327.477,318.334 327.477,319.195 C 327.477,321.278 325.574,324.048 325.574,324.048 C 330.423,323.18 336.661,320.41 340.644,317.985 L 343.071,316.777 L 343.071,316.777 z "
   clip-rule="evenodd"
   style="fill:#ffffff;fill-rule:evenodd" />
	<path
   id="path141"
   d="M 316.917,313.656 C 321.073,310.196 324.531,308.979 327.306,309.67 C 336.838,305.687 338.397,305.343 338.397,305.343 C 334.755,301.013 330.942,300.323 324.362,300.493 C 321.417,300.669 312.409,303.956 311.022,305.864 L 316.917,313.656 L 316.917,313.656 z "
   clip-rule="evenodd"
   style="fill:#ffffff;fill-rule:evenodd" />
	<path
   id="path143"
   d="M 316.924,313.656 C 316.924,313.656 309.463,307.767 311.718,305.167 L 316.924,313.656 L 316.924,313.656 z "
   clip-rule="evenodd"
   style="fill:#ffffff;fill-rule:evenodd" />
	<path
   id="path145"
   d="M 267.904,340.155 C 268.943,339.808 269.983,338.939 270.331,338.596 L 270.502,338.596 C 266.861,335.823 264.612,331.322 264.612,326.475 C 258.024,325.607 256.637,318.163 256.637,318.163 C 255.598,320.76 255.079,323.351 255.079,326.297 C 255.079,331.321 256.464,336.17 259.063,340.154 L 259.238,340.154 C 259.239,340.155 264.263,341.194 267.904,340.155 L 267.904,340.155 z "
   clip-rule="evenodd"
   style="fill:#ffffff;fill-rule:evenodd" />
	<path
   id="path147"
   d="M 258.542,314.179 C 258.542,314.179 260.106,321.971 265.301,322.313 C 266.345,319.027 270.673,315.213 273.446,313.313 L 274.485,312.098 C 273.618,305.694 276.565,302.051 276.565,302.051 L 273.618,302.749 C 267.379,304.478 261.837,308.81 258.542,314.179 L 258.542,314.179 z "
   clip-rule="evenodd"
   style="fill:#ffffff;fill-rule:evenodd" />
	<path
   id="path149"
   d="M 282.448,302.92 C 283.31,301.707 284.874,302.227 285.915,302.051 C 291.631,301.365 299.599,305.167 301.159,308.81 L 298.558,310.71 C 296.484,312.616 293.361,312.965 293.361,312.965 L 291.976,312.442 C 290.246,311.754 287.473,311.408 285.393,311.408 C 283.488,311.408 281.233,310.887 279.504,311.579 C 277.25,309.326 282.448,302.92 282.448,302.92 L 282.448,302.92 z "
   clip-rule="evenodd"
   style="fill:#ffffff;fill-rule:evenodd" />
	<path
   id="path151"
   d="M 307.904,323.878 C 307.037,324.222 312.587,326.126 321.243,324.912 L 321.243,324.739 C 321.243,324.739 322.459,323.528 322.809,322.839 C 322.981,322.143 323.67,320.411 323.67,319.55 C 323.841,318.68 324.023,318.164 324.023,316.949 C 324.023,316.949 324.023,315.909 324.538,314.869 C 323.5,315.39 318.299,317.121 318.299,317.121 C 316.917,317.468 315.874,317.639 315.874,317.639 C 315.183,318.164 314.487,318.854 313.973,319.369 C 313.448,319.723 312.414,320.584 311.374,321.623 C 310.85,321.971 308.251,323.528 307.904,323.878 L 307.904,323.878 z "
   clip-rule="evenodd"
   style="fill:#ffffff;fill-rule:evenodd" />
	<path
   id="path153"
   d="M 288.169,324.912 C 288.169,324.912 287.471,324.912 288.34,321.107 C 288.515,320.064 288.858,319.369 289.207,318.506 C 289.553,317.809 289.897,316.777 290.765,315.736 C 290.765,315.736 289.553,316.427 290.765,315.736 L 289.03,315.908 C 284.183,315.389 281.757,315.04 277.249,314.178 C 276.037,314.178 277.249,314.178 277.249,314.178 C 275.865,314.523 273.789,315.908 273.265,316.777 C 272.921,317.467 272.223,317.809 271.706,318.335 C 271.192,318.854 269.977,320.411 269.977,320.411 C 274.65,322.491 283.487,325.092 288.169,324.912 L 288.169,324.912 z "
   clip-rule="evenodd"
   style="fill:#ffffff;fill-rule:evenodd" />
	<path
   id="path155"
   d="M 313.979,315.563 C 313.979,315.563 307.74,310.368 308.781,306.554 C 301.845,312.792 299.076,315.908 293.361,315.908 C 291.798,316.08 293.009,315.908 293.009,315.908 C 292.319,316.776 291.975,317.984 291.625,318.852 C 291.45,319.721 291.106,320.582 291.106,321.451 C 290.934,323.87 291.106,324.566 291.106,324.566 C 297.517,324.911 296.992,325.085 302.886,323.527 C 302.886,323.527 306.872,322.141 310.684,318.328 C 311.38,317.81 313.281,316.252 313.979,315.563 L 313.979,315.563 z "
   clip-rule="evenodd"
   style="fill:#ffffff;fill-rule:evenodd" />
	<path
   id="path157"
   d="M 290.595,330.281 C 283.488,327.69 273.79,326.822 268.59,328.896 L 269.805,331.322 L 273.44,336.171 L 277.601,335.823 C 277.601,335.823 280.719,335.823 283.144,337.039 C 283.145,337.039 289.725,330.11 290.595,330.281 L 290.595,330.281 z "
   clip-rule="evenodd"
   style="fill:#ffffff;fill-rule:evenodd" />
	<polygon
   id="polygon159"
   points="355.366,356.092 354.498,355.05 347.564,361.109 348.431,362.149 355.366,356.092 "
   clip-rule="evenodd"
   style="fill:#ffffff;fill-rule:evenodd" />
	<polygon
   id="polygon161"
   points="242.961,359.897 243.829,358.862 237.247,352.623 236.38,353.666 242.961,359.897 "
   clip-rule="evenodd"
   style="fill:#ffffff;fill-rule:evenodd" />
</g></g>
</svg>