<?xml version="1.0" encoding="utf-8"?>
<!-- Generator: Adobe Illustrator 12.0.0, SVG Export Plug-In . SVG Version: 6.00 Build 51448)  -->
<!DOCTYPE svg PUBLIC "-//W3C//DTD SVG 1.1//EN" "http://www.w3.org/Graphics/SVG/1.1/DTD/svg11.dtd" [
	<!ENTITY ns_svg "http://www.w3.org/2000/svg">
	<!ENTITY ns_xlink "http://www.w3.org/1999/xlink">
]>
<svg  version="1.1" id="Layer_2" xmlns="&ns_svg;" xmlns:xlink="&ns_xlink;" width="400" height="270" viewBox="0 0 400 270"
	 overflow="visible" enable-background="new 0 0 400 270" xml:space="preserve">
<g>
	<path d="M296.315,118.417c0,0,2.56,28.041-2.19,39.791c0,0-5.041,14.959-21.973,25.107c0,0-25.16,14.443-47.962-0.565
		c0,0-23.773-14.719-22.598-36.719c0,0-0.28-13.677,7.552-23.196c0,0,3.355-4.668,8.949-0.762c0,0,32.657,21.683,52.49,21.683
		C270.584,143.755,289.834,143.667,296.315,118.417z"/>
	<path d="M99.676,125.708c0,0-2.801,19.333,1.949,31.083c0,0,3.753,14.753,20.125,25.461c0,0,24.948,15.673,47.75,0.664
		c0,0,23.099-14.25,21.924-37.948c0,0,0.28-13.677-7.552-23.196c0,0-4.247-4.731-10.176,0.465c0,0-29.696,21.304-51.263,21.304
		C122.433,143.542,106.875,144.167,99.676,125.708z"/>
	<path d="M216.667,9.75h37.5c0,0,42.583,4.917,42.583,48.333v31.75c0,0-6.749-24.833-27.083-24.833c0,0-18.084-0.917-56.251,23.417
		c0,0,24.001-46.25,22.417-54.667C235.833,33.75,236.333,20.5,216.667,9.75z"/>
	<path d="M175.5,9.75h-28.75c0,0-47.75,4.417-47.75,45.917v26.25c0,0,10.25-18.25,24.75-17c0,0,14.5-1.5,56.75,23.75
		c0,0-24.5-41.75-23.75-54.75C156.75,33.917,155.75,21.083,175.5,9.75z"/>
</g>
<g>
	<path fill="#3196DC" d="M107.75,144.167c0,0,1.25,40,44.5,41.25c0,0,29.5-1,34.5-34.75c0,0,3.5-9.75-2.25-21.5
		c0,0-3.5-8.5-11.25-2.5c0,0-17.5,13.75-48,19.75C125.25,146.417,114.5,146.667,107.75,144.167z"/>
	<path fill="#3196DC" d="M289.25,144.542c0,0-2.875,40.75-41.875,40.75c0,0-36.75-1.625-37.25-40c0,0,0.25-13.625,4.75-18.75
		c0,0,3-3.5,8.375,0C223.25,126.542,264,153.542,289.25,144.542z"/>
	<path fill="#3196DC" d="M235.75,13.917c0,0,54.833-3.917,54.625,52.25c0,0-18.875-15.333-62.708,10.5
		c0,0,16.333-28.167,16.333-43.167C244,33.5,243.5,22.333,235.75,13.917z"/>
	<path fill="#3196DC" d="M162.25,14.292c0,0-56.75-3.875-54.75,51.875c0,0,21.75-14,62,10.25c0,0-15.75-28.75-15.75-40.25
		C153.75,36.167,154.5,22.042,162.25,14.292z"/>
</g>
<g>
	<g>
		<path d="M67.125,235.386c-0.83,0.08-1.567,0.173-2.21,0.278s-1.446,0.317-2.41,0.634c-1.099,0.344-1.822,0.913-2.17,1.706
			c-0.349,0.794-0.522,1.627-0.522,2.499v6.546c0,1.322,0.013,2.387,0.04,3.193c0.026,0.807,0.066,1.806,0.12,2.996
			c-2.672,1.587-6.618,3.081-11.841,4.482s-10.024,2.103-14.405,2.103c-4.113,0-7.974-0.623-11.58-1.867s-6.771-3.112-9.496-5.603
			c-2.725-2.463-4.869-5.521-6.432-9.177s-2.344-7.841-2.344-12.556c0-4.396,0.733-8.463,2.201-12.197
			c1.467-3.734,3.589-6.953,6.364-9.655c2.721-2.675,6.036-4.74,9.945-6.197s8.238-2.186,12.988-2.186
			c3.229,0,6.217,0.399,8.965,1.198s5.017,1.648,6.805,2.548l2.481-2.184h3.5l0.375,20.563H54
			c-2.032-6.176-4.465-10.762-7.299-13.757s-6.416-4.493-10.746-4.493c-5.133,0-9.097,2.223-11.89,6.666
			c-2.794,4.443-4.19,10.567-4.19,18.37c0,8.279,1.37,14.76,4.111,19.441c2.74,4.682,6.625,7.022,11.652,7.022
			c2.353,0,4.444-0.349,6.276-1.048s3.256-1.51,4.272-2.434v-11.395c0-0.949-0.174-1.746-0.521-2.393s-1.043-1.207-2.086-1.683
			c-0.803-0.369-1.807-0.672-3.01-0.909s-2.206-0.409-3.008-0.515v-3.125h29.563V235.386z"/>
	</g>
	<g>
		<path d="M84.625,243.122H62.75v-2.281c0.5-0.039,1.236-0.097,2.208-0.174c0.972-0.078,1.644-0.193,2.014-0.35
			c0.685-0.289,1.153-0.672,1.403-1.146s0.375-1.08,0.375-1.816v-29.222c0-0.658-0.121-1.239-0.361-1.743
			c-0.241-0.503-0.713-0.91-1.417-1.22c-0.444-0.193-1.102-0.392-1.972-0.595c-0.871-0.203-1.621-0.344-2.25-0.422v-2.281h21.875
			v2.281c-0.556,0.059-1.25,0.141-2.083,0.247c-0.833,0.106-1.537,0.257-2.111,0.45c-0.723,0.252-1.204,0.645-1.445,1.176
			c-0.241,0.533-0.361,1.139-0.361,1.816v29.193c0,0.697,0.125,1.292,0.375,1.785c0.25,0.494,0.727,0.896,1.431,1.206
			c0.389,0.175,1.032,0.345,1.93,0.509s1.653,0.266,2.264,0.305V243.122z"/>
		<path d="M131.408,243.122h-15.935c-2.754-4.19-5.045-7.527-6.871-10.011c-1.827-2.483-4.098-5.354-6.813-8.614h-1.601v12.534
			c0,0.698,0.132,1.29,0.396,1.774s0.767,0.892,1.51,1.221c0.371,0.155,0.952,0.315,1.744,0.48c0.792,0.164,1.471,0.275,2.038,0.334
			v2.281H83.689v-2.281c0.566-0.058,1.313-0.141,2.241-0.246c0.928-0.107,1.587-0.238,1.978-0.393
			c0.742-0.311,1.24-0.702,1.494-1.177s0.381-1.079,0.381-1.815v-29.077c0-0.696-0.107-1.278-0.322-1.743s-0.732-0.871-1.553-1.22
			c-0.625-0.251-1.362-0.464-2.212-0.639s-1.519-0.3-2.007-0.378v-2.281h23.315c5.214,0,9.173,0.809,11.877,2.426
			c2.705,1.616,4.057,4.061,4.057,7.333c0,2.885-0.835,5.204-2.504,6.956c-1.669,1.752-4.212,3.122-7.628,4.109
			c1.328,1.707,2.875,3.686,4.643,5.936s3.608,4.548,5.522,6.895c0.605,0.756,1.43,1.68,2.475,2.773s1.968,1.767,2.769,2.018
			c0.449,0.137,1.02,0.253,1.713,0.35s1.187,0.154,1.479,0.174V243.122z M111.439,212.456c0-2.748-0.774-4.758-2.323-6.025
			s-3.755-1.902-6.618-1.902h-2.309v17.25h2.221c2.863,0,5.084-0.745,6.662-2.236C110.65,218.051,111.439,215.69,111.439,212.456z"
			/>
		<path d="M161.868,229.903l-0.762,13.219h-35.582v-2.281c0.634-0.058,1.377-0.15,2.229-0.275c0.852-0.127,1.414-0.248,1.687-0.363
			c0.652-0.271,1.105-0.648,1.359-1.133s0.381-1.104,0.381-1.859v-29.077c0-0.696-0.1-1.272-0.299-1.728s-0.68-0.867-1.441-1.235
			c-0.563-0.271-1.238-0.489-2.026-0.653s-1.418-0.285-1.89-0.363v-2.281h21.219v2.281c-0.581,0.059-1.265,0.141-2.054,0.247
			c-0.789,0.106-1.473,0.257-2.053,0.45c-0.708,0.252-1.179,0.645-1.415,1.176c-0.236,0.533-0.354,1.139-0.354,1.816v27.104
			c0,1.278,0.082,2.285,0.245,3.021s0.48,1.277,0.951,1.627c0.471,0.367,1.128,0.605,1.971,0.711c0.843,0.107,2.007,0.16,3.493,0.16
			c1.449,0,2.858-0.092,4.227-0.275s2.351-0.586,2.949-1.205c0.924-0.986,1.871-2.374,2.84-4.164
			c0.97-1.789,1.744-3.428,2.324-4.918H161.868z"/>
		<path d="M216.282,226.34c-0.618,0.059-1.165,0.127-1.644,0.203c-0.479,0.078-1.075,0.232-1.792,0.465
			c-0.817,0.252-1.354,0.67-1.614,1.25c-0.258,0.582-0.388,1.192-0.388,1.832v4.797c0,0.969,0.01,1.748,0.03,2.34
			c0.02,0.591,0.049,1.322,0.09,2.194c-1.993,1.163-4.938,2.258-8.832,3.284c-3.895,1.027-7.476,1.541-10.743,1.541
			c-3.068,0-5.948-0.455-8.637-1.367c-2.689-0.91-5.05-2.277-7.082-4.1c-2.032-1.803-3.631-4.041-4.797-6.717
			c-1.166-2.675-1.748-5.738-1.748-9.188c0-3.218,0.547-6.193,1.643-8.927c1.095-2.733,2.678-5.088,4.749-7.066
			c2.031-1.957,4.505-3.469,7.422-4.535s6.147-1.6,9.692-1.6c2.409,0,4.64,0.289,6.69,0.867c2.051,0.579,3.743,1.197,5.078,1.856
			l1.852-1.599h2.594l0.281,15.063h-2.625c-1.515-4.526-3.328-7.887-5.44-10.082s-4.783-3.293-8.011-3.293
			c-3.826,0-6.781,1.629-8.863,4.887c-2.083,3.257-3.124,7.745-3.124,13.465c0,6.068,1.022,10.819,3.066,14.251
			c2.044,3.432,4.941,5.147,8.69,5.147c1.755,0,3.316-0.256,4.682-0.77s2.428-1.109,3.186-1.788v-8.371
			c0-0.697-0.13-1.284-0.389-1.759c-0.26-0.475-0.779-0.887-1.557-1.234c-0.599-0.271-1.347-0.494-2.246-0.669
			s-1.647-0.3-2.246-0.378v-2.281h22.031V226.34z"/>
		<path d="M256.086,204.149c-0.56,0.059-1.365,0.189-2.417,0.393s-1.935,0.557-2.648,1.061c-0.733,0.484-1.249,1.355-1.548,2.615
			c-0.3,1.259-0.449,3.147-0.449,5.666v15.342c0,4.514-1.527,8.145-4.583,10.896s-7.097,4.126-12.124,4.126
			c-5.859,0-10.393-1.326-13.604-3.98c-3.209-2.654-4.814-6.354-4.814-11.1v-21.096c0-0.678-0.131-1.259-0.391-1.743
			c-0.262-0.484-0.758-0.92-1.492-1.308c-0.502-0.252-1.119-0.455-1.854-0.609c-0.733-0.155-1.332-0.262-1.795-0.32v-2.219h21.563
			v2.219c-0.619,0.039-1.248,0.111-1.887,0.218s-1.286,0.267-1.943,0.479c-0.736,0.232-1.229,0.619-1.48,1.162
			c-0.252,0.541-0.377,1.151-0.377,1.829v20.795c0,4.085,0.898,7.058,2.697,8.916c1.797,1.858,4.406,2.788,7.828,2.788
			c3.363,0,6.002-1.025,7.916-3.078s2.871-5.073,2.871-9.062v-13.97c0-2.479-0.17-4.332-0.508-5.562
			c-0.339-1.229-0.855-2.115-1.553-2.657c-0.503-0.426-1.379-0.813-2.626-1.162c-1.248-0.348-2.123-0.561-2.626-0.639v-2.277h17.844
			V204.149z"/>
		<path d="M271.783,243.122h-22.625v-2.281c0.518-0.039,1.281-0.097,2.289-0.174c1.008-0.078,1.703-0.193,2.087-0.35
			c0.71-0.289,1.194-0.672,1.454-1.146c0.259-0.475,0.389-1.08,0.389-1.816v-29.222c0-0.658-0.125-1.239-0.375-1.743
			c-0.249-0.503-0.738-0.91-1.468-1.22c-0.461-0.193-1.142-0.392-2.044-0.595s-1.68-0.344-2.332-0.422v-2.281h22.625v2.281
			c-0.576,0.059-1.296,0.141-2.16,0.247c-0.863,0.106-1.592,0.257-2.188,0.45c-0.748,0.252-1.248,0.645-1.497,1.176
			c-0.249,0.533-0.374,1.139-0.374,1.816v29.193c0,0.697,0.129,1.292,0.389,1.785c0.259,0.494,0.754,0.896,1.482,1.206
			c0.403,0.175,1.07,0.345,2.001,0.509s1.713,0.266,2.347,0.305V243.122z"/>
		<path d="M303.188,206.116c2.514,1.647,4.543,3.842,6.09,6.584s2.32,6.101,2.32,10.073c0,3.488-0.691,6.526-2.073,9.113
			s-3.214,4.704-5.495,6.352c-2.32,1.647-4.954,2.874-7.902,3.678s-6.036,1.206-9.265,1.206h-20.733v-2.281
			c0.618-0.02,1.392-0.077,2.319-0.174s1.546-0.213,1.856-0.35c0.695-0.289,1.179-0.682,1.449-1.176s0.406-1.09,0.406-1.787v-29.222
			c0-0.658-0.126-1.254-0.377-1.786c-0.252-0.532-0.745-0.963-1.48-1.293c-0.734-0.329-1.514-0.552-2.336-0.668
			s-1.455-0.193-1.9-0.232v-2.281h21.896c2.339,0,4.843,0.301,7.511,0.901S300.713,204.488,303.188,206.116z M297.28,235.672
			c0.946-1.55,1.637-3.395,2.071-5.535c0.435-2.14,0.652-4.604,0.652-7.394c0-2.731-0.29-5.22-0.869-7.466
			c-0.58-2.247-1.43-4.164-2.551-5.753c-1.12-1.588-2.516-2.817-4.188-3.689c-1.67-0.872-3.568-1.308-5.693-1.308
			c-0.676,0-1.444,0.015-2.304,0.043c-0.859,0.029-1.502,0.054-1.927,0.073v31.289c0,0.697,0.092,1.313,0.275,1.845
			c0.184,0.533,0.498,1.003,0.941,1.409c0.444,0.407,0.99,0.722,1.637,0.944c0.648,0.223,1.493,0.334,2.536,0.334
			c2.183,0,4.057-0.406,5.622-1.221C295.049,238.432,296.314,237.241,297.28,235.672z"/>
		<path d="M347.044,212.403h-2.25c-0.572-1.563-1.558-3.146-2.958-4.748s-2.791-2.548-4.172-2.838
			c-0.592-0.135-1.415-0.217-2.471-0.246c-1.055-0.028-1.928-0.043-2.617-0.043h-6.095v15.875h4.325
			c1.087,0,2.074-0.126,2.963-0.378s1.699-0.737,2.431-1.454c0.454-0.445,0.913-1.23,1.378-2.355
			c0.463-1.125,0.765-2.104,0.903-2.938h2.25v17.219h-2.25c-0.118-0.813-0.42-1.835-0.903-3.064
			c-0.484-1.23-0.943-2.078-1.378-2.543c-0.652-0.697-1.423-1.176-2.312-1.438s-1.916-0.393-3.082-0.393h-4.325v11.885
			c0,1.24,0.094,2.223,0.281,2.949s0.538,1.284,1.051,1.672c0.493,0.367,1.169,0.609,2.028,0.727
			c0.857,0.115,2.027,0.174,3.508,0.174c0.691,0,1.52-0.01,2.487-0.029c0.967-0.02,1.815-0.077,2.546-0.174
			c0.828-0.097,1.604-0.242,2.324-0.436s1.258-0.474,1.613-0.842c0.947-0.947,2.013-2.395,3.197-4.339
			c1.184-1.944,1.964-3.4,2.339-4.368h2.156l-0.799,12.844h-39.389v-2.281c0.552-0.039,1.302-0.116,2.249-0.232
			s1.618-0.252,2.014-0.406c0.749-0.311,1.252-0.702,1.509-1.177s0.385-1.079,0.385-1.815v-29.077c0-0.696-0.108-1.272-0.325-1.728
			c-0.218-0.455-0.74-0.867-1.568-1.235c-0.514-0.232-1.234-0.445-2.161-0.64c-0.928-0.193-1.628-0.318-2.102-0.377v-2.281h37.219
			V212.403z"/>
	</g>
	<g>
		<path d="M369.13,260.224c-3.476,0-6.717-0.433-9.725-1.298s-5.555-1.88-7.64-3.046l-2.767,2.781h-3.438l-0.5-20.375h3.438
			c0.774,1.94,1.763,3.986,2.965,6.139s2.592,4.079,4.168,5.78c1.63,1.78,3.453,3.229,5.471,4.345
			c2.017,1.116,4.374,1.674,7.073,1.674c3.633,0,6.418-0.884,8.355-2.653c1.937-1.769,2.905-3.996,2.905-6.684
			c0-2.207-0.821-4.063-2.463-5.565s-4.185-2.798-7.628-3.884c-2.242-0.715-4.305-1.377-6.187-1.986
			c-1.883-0.609-3.651-1.231-5.306-1.867c-3.818-1.512-6.654-3.673-8.51-6.484c-1.855-2.811-2.782-5.954-2.782-9.429
			c0-2.201,0.48-4.315,1.442-6.345c0.961-2.029,2.363-3.853,4.207-5.471c1.763-1.512,4.02-2.744,6.771-3.699
			s5.743-1.433,8.976-1.433c3.152,0,6.104,0.439,8.855,1.318c2.751,0.879,4.915,1.755,6.491,2.629l2.444-2.385h3.5l0.313,19.25
			h-3.438c-0.803-2.071-1.745-4.189-2.827-6.354c-1.083-2.164-2.226-3.964-3.428-5.398c-1.311-1.54-2.82-2.769-4.531-3.685
			s-3.716-1.375-6.015-1.375c-2.888,0-5.247,0.809-7.078,2.425c-1.831,1.617-2.746,3.618-2.746,6.003
			c0,2.253,0.795,4.095,2.386,5.526s4.071,2.69,7.44,3.776c1.979,0.664,3.997,1.327,6.056,1.99s3.891,1.3,5.496,1.91
			c3.877,1.486,6.824,3.536,8.844,6.149c2.019,2.613,3.028,5.857,3.028,9.73c0,2.441-0.575,4.803-1.725,7.084
			c-1.149,2.282-2.7,4.18-4.651,5.691c-2.139,1.672-4.612,2.959-7.419,3.861C376.147,259.773,372.872,260.224,369.13,260.224z"/>
	</g>
	<g>
		<path d="M78.664,248.802l6.086,13.594h-1.838l-1.504-3.359h-5.456l-1.492,3.359h-1.834L78.664,248.802z M78.668,252.92
			l-2.058,4.632h4.131L78.668,252.92z"/>
		<path d="M93.502,250.766l-1.429,1.161c-0.378-0.399-0.72-0.696-1.027-0.894c-0.308-0.195-0.751-0.294-1.331-0.294
			c-0.634,0-1.148,0.146-1.543,0.437c-0.395,0.29-0.592,0.664-0.592,1.123c0,0.396,0.172,0.747,0.516,1.051
			c0.344,0.305,0.931,0.637,1.761,0.996c0.83,0.36,1.476,0.696,1.938,1.008c0.462,0.312,0.842,0.655,1.139,1.031
			c0.297,0.377,0.518,0.774,0.663,1.191c0.145,0.418,0.218,0.859,0.218,1.324c0,1.089-0.39,2.016-1.171,2.783
			c-0.78,0.766-1.726,1.149-2.834,1.149c-1.082,0-2.036-0.3-2.864-0.899s-1.466-1.498-1.912-2.697l1.766-0.497
			c0.642,1.469,1.625,2.203,2.949,2.203c0.642,0,1.175-0.194,1.601-0.583c0.425-0.389,0.638-0.88,0.638-1.474
			c0-0.354-0.112-0.711-0.335-1.069c-0.223-0.357-0.5-0.652-0.832-0.885c-0.332-0.231-0.858-0.498-1.581-0.801
			c-0.722-0.303-1.278-0.579-1.667-0.828c-0.39-0.25-0.727-0.548-1.011-0.893c-0.285-0.346-0.493-0.689-0.625-1.031
			s-0.198-0.708-0.198-1.098c0-0.938,0.372-1.735,1.115-2.396c0.744-0.66,1.646-0.99,2.707-0.99c0.703,0,1.416,0.154,2.139,0.462
			C92.421,249.667,93.022,250.136,93.502,250.766z"/>
		<path d="M103.112,250.766l-1.429,1.161c-0.378-0.399-0.72-0.696-1.027-0.894c-0.308-0.195-0.751-0.294-1.331-0.294
			c-0.634,0-1.148,0.146-1.543,0.437c-0.395,0.29-0.592,0.664-0.592,1.123c0,0.396,0.172,0.747,0.516,1.051
			c0.344,0.305,0.931,0.637,1.761,0.996c0.83,0.36,1.476,0.696,1.938,1.008c0.462,0.312,0.842,0.655,1.139,1.031
			c0.297,0.377,0.518,0.774,0.663,1.191c0.145,0.418,0.218,0.859,0.218,1.324c0,1.089-0.39,2.016-1.171,2.783
			c-0.78,0.766-1.726,1.149-2.834,1.149c-1.082,0-2.036-0.3-2.864-0.899s-1.466-1.498-1.912-2.697l1.766-0.497
			c0.642,1.469,1.625,2.203,2.949,2.203c0.642,0,1.175-0.194,1.601-0.583c0.425-0.389,0.638-0.88,0.638-1.474
			c0-0.354-0.112-0.711-0.335-1.069c-0.223-0.357-0.5-0.652-0.832-0.885c-0.332-0.231-0.858-0.498-1.581-0.801
			c-0.722-0.303-1.278-0.579-1.667-0.828c-0.39-0.25-0.727-0.548-1.011-0.893c-0.285-0.346-0.493-0.689-0.625-1.031
			s-0.198-0.708-0.198-1.098c0-0.938,0.372-1.735,1.115-2.396c0.744-0.66,1.646-0.99,2.707-0.99c0.703,0,1.416,0.154,2.139,0.462
			C102.03,249.667,102.632,250.136,103.112,250.766z"/>
		<path d="M104.253,255.772c0-1.888,0.669-3.506,2.008-4.854c1.338-1.349,2.947-2.022,4.826-2.022c1.834,0,3.414,0.679,4.74,2.037
			c1.325,1.358,1.988,2.972,1.988,4.839c0,1.979-0.655,3.649-1.964,5.014c-1.31,1.365-2.917,2.048-4.822,2.048
			c-1.879,0-3.479-0.688-4.798-2.063C104.912,259.395,104.253,257.729,104.253,255.772z M116.034,255.852
			c0-1.443-0.49-2.658-1.469-3.646c-0.979-0.987-2.185-1.481-3.614-1.481c-1.359,0-2.524,0.503-3.494,1.508s-1.454,2.212-1.454,3.62
			c0,1.429,0.498,2.637,1.493,3.625c0.995,0.987,2.214,1.481,3.658,1.481c1.327,0,2.472-0.504,3.436-1.513
			C115.553,258.438,116.034,257.24,116.034,255.852z"/>
		<path d="M128.831,249.755v2.031c-1.323-0.698-2.541-1.047-3.651-1.047c-1.426,0-2.627,0.491-3.603,1.474
			c-0.977,0.981-1.464,2.188-1.464,3.617c0,1.458,0.5,2.675,1.498,3.649c0.999,0.976,2.25,1.463,3.752,1.463
			c1.092,0,2.248-0.37,3.468-1.109v2.047c-1.112,0.636-2.317,0.953-3.615,0.953c-1.902,0-3.527-0.686-4.877-2.058
			s-2.024-3.025-2.024-4.963c0-1.901,0.664-3.53,1.99-4.885s2.925-2.032,4.795-2.032
			C126.302,248.896,127.545,249.182,128.831,249.755z"/>
		<path d="M131.085,249.302h1.75v13.094h-1.75V249.302z"/>
		<path d="M140.583,248.802l6.508,13.594h-1.962l-1.608-3.359h-5.832l-1.593,3.359h-1.957L140.583,248.802z M140.589,252.916
			l-2.198,4.637h4.418L140.589,252.916z"/>
		<path d="M146.13,249.302h7.922v1.781h-3.094v11.313h-1.75v-11.313h-3.078V249.302z"/>
		<path d="M155.202,249.302h1.75v13.094h-1.75V249.302z"/>
		<path d="M158.978,255.772c0-1.888,0.669-3.506,2.008-4.854c1.338-1.349,2.947-2.022,4.826-2.022c1.834,0,3.414,0.679,4.74,2.037
			c1.325,1.358,1.988,2.972,1.988,4.839c0,1.979-0.655,3.649-1.964,5.014c-1.31,1.365-2.917,2.048-4.822,2.048
			c-1.879,0-3.479-0.688-4.798-2.063C159.637,259.395,158.978,257.729,158.978,255.772z M170.759,255.852
			c0-1.443-0.49-2.658-1.469-3.646c-0.979-0.987-2.185-1.481-3.614-1.481c-1.359,0-2.524,0.503-3.494,1.508s-1.454,2.212-1.454,3.62
			c0,1.429,0.498,2.637,1.493,3.625c0.995,0.987,2.214,1.481,3.658,1.481c1.327,0,2.472-0.504,3.436-1.513
			C170.277,258.438,170.759,257.24,170.759,255.852z"/>
		<path d="M174.649,248.787l9.547,9.946v-9.431h1.766v13.703l-9.547-9.901v9.292h-1.766V248.787z"/>
		<path d="M192.421,255.772c0-1.888,0.684-3.506,2.052-4.854c1.368-1.349,3.012-2.022,4.932-2.022c1.874,0,3.488,0.679,4.843,2.037
			c1.355,1.358,2.033,2.972,2.033,4.839c0,1.979-0.67,3.649-2.008,5.014c-1.339,1.365-2.98,2.048-4.927,2.048
			c-1.92,0-3.554-0.688-4.903-2.063C193.096,259.395,192.421,257.729,192.421,255.772z M204.453,255.852
			c0-1.443-0.5-2.658-1.499-3.646c-0.999-0.987-2.229-1.481-3.688-1.481c-1.387,0-2.575,0.503-3.564,1.508s-1.484,2.212-1.484,3.62
			c0,1.429,0.507,2.637,1.523,3.625c1.016,0.987,2.26,1.481,3.732,1.481c1.354,0,2.522-0.504,3.505-1.513
			C203.961,258.438,204.453,257.24,204.453,255.852z"/>
		<path d="M207.899,249.302h7.156v1.781h-5.406v3.281h5.406v1.766h-5.391v6.266h-1.766V249.302z"/>
		<path d="M228.817,250.766l-1.429,1.161c-0.378-0.399-0.721-0.696-1.027-0.894c-0.307-0.195-0.75-0.294-1.33-0.294
			c-0.635,0-1.149,0.146-1.544,0.437c-0.395,0.29-0.592,0.664-0.592,1.123c0,0.396,0.172,0.747,0.516,1.051
			c0.344,0.305,0.931,0.637,1.761,0.996c0.83,0.36,1.477,0.696,1.938,1.008s0.842,0.655,1.139,1.031
			c0.297,0.377,0.519,0.774,0.663,1.191c0.145,0.418,0.218,0.859,0.218,1.324c0,1.089-0.391,2.016-1.171,2.783
			c-0.781,0.766-1.726,1.149-2.834,1.149c-1.082,0-2.037-0.3-2.865-0.899s-1.465-1.498-1.911-2.697l1.766-0.497
			c0.642,1.469,1.624,2.203,2.948,2.203c0.642,0,1.176-0.194,1.601-0.583c0.426-0.389,0.639-0.88,0.639-1.474
			c0-0.354-0.112-0.711-0.335-1.069c-0.223-0.357-0.5-0.652-0.832-0.885c-0.332-0.231-0.858-0.498-1.58-0.801
			c-0.723-0.303-1.278-0.579-1.668-0.828c-0.39-0.25-0.727-0.548-1.012-0.893c-0.284-0.346-0.493-0.689-0.625-1.031
			c-0.133-0.342-0.198-0.708-0.198-1.098c0-0.938,0.372-1.735,1.115-2.396s1.646-0.99,2.707-0.99c0.702,0,1.415,0.154,2.139,0.462
			C227.736,249.667,228.338,250.136,228.817,250.766z"/>
		<path d="M229.817,255.772c0-1.888,0.646-3.506,1.938-4.854c1.292-1.349,2.846-2.022,4.66-2.022c1.77,0,3.295,0.679,4.575,2.037
			s1.92,2.972,1.92,4.839c0,1.979-0.632,3.649-1.896,5.014c-1.265,1.365-2.816,2.048-4.655,2.048c-1.814,0-3.357-0.688-4.632-2.063
			C230.454,259.395,229.817,257.729,229.817,255.772z M241.192,255.852c0-1.443-0.472-2.658-1.416-3.646
			c-0.944-0.987-2.106-1.481-3.485-1.481c-1.311,0-2.434,0.503-3.368,1.508s-1.402,2.212-1.402,3.62
			c0,1.429,0.479,2.637,1.439,3.625c0.96,0.987,2.136,1.481,3.526,1.481c1.28,0,2.385-0.504,3.313-1.513
			C240.729,258.438,241.192,257.24,241.192,255.852z"/>
		<path d="M245.455,249.318h1.766v8.042c0,1.191,0.282,2.113,0.847,2.764s1.364,0.976,2.398,0.976c1.027,0,1.827-0.3,2.397-0.898
			c0.572-0.6,0.857-1.443,0.857-2.532v-8.351h1.766v8.232c0,1.604-0.451,2.885-1.354,3.845c-0.902,0.959-2.104,1.438-3.605,1.438
			c-1.535,0-2.764-0.486-3.687-1.46c-0.924-0.973-1.385-2.408-1.385-4.306V249.318z"/>
		<path d="M256.256,249.302h7.922v1.781h-3.094v11.313h-1.75v-11.313h-3.078V249.302z"/>
		<path d="M265.692,249.302h1.766v5.031h6.156v-5.031h1.75v13.094h-1.75v-6.297h-6.156v6.297h-1.766V249.302z"/>
		<path d="M287.425,248.802l6.086,13.594h-1.839l-1.504-3.359h-5.455l-1.493,3.359h-1.834L287.425,248.802z M287.43,252.92
			l-2.058,4.632h4.132L287.43,252.92z"/>
		<path d="M294.42,249.302h7.156v1.781h-5.406v3.281h5.406v1.766h-5.391v6.266h-1.766V249.302z"/>
		<path d="M302.936,249.302h2.793c1.391,0,2.522,0.351,3.396,1.053c0.873,0.701,1.311,1.601,1.311,2.695
			c0,0.876-0.283,1.649-0.848,2.32c-0.565,0.671-1.447,1.144-2.645,1.417l3.742,5.608h-2.014l-3.58-5.391h-0.391v5.391h-1.766
			V249.302z M304.701,250.88v4.563c2.594,0.055,3.891-0.709,3.891-2.292c0-0.555-0.151-1.008-0.455-1.361
			c-0.303-0.353-0.707-0.592-1.213-0.719C306.419,250.944,305.678,250.88,304.701,250.88z"/>
		<path d="M312.71,249.302h1.75v13.094h-1.75V249.302z"/>
		<path d="M326.653,249.755v2.031c-1.323-0.698-2.54-1.047-3.651-1.047c-1.426,0-2.627,0.491-3.604,1.474
			c-0.976,0.981-1.464,2.188-1.464,3.617c0,1.458,0.499,2.675,1.498,3.649c0.999,0.976,2.249,1.463,3.753,1.463
			c1.092,0,2.247-0.37,3.468-1.109v2.047c-1.112,0.636-2.316,0.953-3.614,0.953c-1.902,0-3.528-0.686-4.877-2.058
			c-1.35-1.372-2.024-3.025-2.024-4.963c0-1.901,0.663-3.53,1.99-4.885s2.925-2.032,4.795-2.032
			C324.125,248.896,325.368,249.182,326.653,249.755z"/>
		<path d="M333.542,248.802l6.086,13.594h-1.839l-1.504-3.359h-5.455l-1.493,3.359h-1.834L333.542,248.802z M333.547,252.92
			l-2.058,4.632h4.132L333.547,252.92z"/>
	</g>
</g>
<rect fill="none" width="400" height="270"/>
</svg>
